<?xml version="1.0" encoding="utf-8"?>
<!-- Generated by IcoMoon.io -->
<!DOCTYPE svg PUBLIC "-//W3C//DTD SVG 1.1//EN" "http://www.w3.org/Graphics/SVG/1.1/DTD/svg11.dtd">
<svg version="1.1" xmlns="http://www.w3.org/2000/svg" xmlns:xlink="http://www.w3.org/1999/xlink" width="18" height="18" viewBox="0 0 18 18">
<path d="M8.438 1.125c-4.66 0-8.438 3.778-8.438 8.438s3.778 8.438 8.438 8.438c4.66 0 8.438-3.778 8.438-8.438s-3.778-8.438-8.438-8.438zM13.212 12.375c0.151-0.711 0.246-1.466 0.277-2.25h2.24c-0.059 0.777-0.239 1.531-0.539 2.25h-1.978zM3.663 6.75c-0.151 0.711-0.246 1.466-0.277 2.25h-2.24c0.059-0.777 0.239-1.531 0.539-2.25h1.978zM12.059 6.75c0.169 0.72 0.271 1.474 0.304 2.25h-3.363v-2.25h3.059zM9 5.625v-3.293c0.256 0.075 0.511 0.2 0.76 0.376 0.467 0.329 0.914 0.837 1.293 1.468 0.262 0.436 0.488 0.921 0.677 1.45h-2.729zM5.822 4.175c0.378-0.631 0.825-1.138 1.293-1.468 0.249-0.176 0.503-0.301 0.76-0.376v3.293h-2.729c0.189-0.529 0.415-1.014 0.677-1.45zM7.875 6.75v2.25h-3.363c0.033-0.776 0.135-1.53 0.304-2.25h3.059zM1.686 12.375c-0.3-0.719-0.481-1.473-0.539-2.25h2.24c0.031 0.784 0.126 1.539 0.277 2.25h-1.978zM4.512 10.125h3.363v2.25h-3.059c-0.169-0.72-0.271-1.474-0.304-2.25zM7.875 13.5v3.293c-0.256-0.075-0.511-0.2-0.76-0.376-0.467-0.329-0.914-0.837-1.293-1.468-0.262-0.436-0.488-0.921-0.677-1.45h2.729zM11.053 14.95c-0.378 0.631-0.825 1.138-1.293 1.468-0.249 0.176-0.503 0.301-0.76 0.376v-3.293h2.729c-0.189 0.529-0.415 1.014-0.677 1.45zM9 12.375v-2.25h3.363c-0.033 0.776-0.135 1.53-0.304 2.25h-3.059zM13.489 9c-0.031-0.784-0.126-1.539-0.277-2.25h1.978c0.3 0.719 0.481 1.473 0.539 2.25h-2.24zM14.601 5.625h-1.686c-0.328-1.033-0.78-1.939-1.324-2.662 0.748 0.358 1.425 0.837 2.016 1.429 0.378 0.378 0.709 0.79 0.993 1.233zM3.267 4.392c0.592-0.592 1.269-1.071 2.016-1.429-0.544 0.723-0.996 1.629-1.324 2.662h-1.686c0.284-0.443 0.616-0.856 0.993-1.233zM2.274 13.5h1.686c0.328 1.033 0.78 1.939 1.324 2.662-0.748-0.358-1.425-0.837-2.016-1.429-0.378-0.378-0.71-0.79-0.993-1.233zM13.608 14.733c-0.592 0.592-1.269 1.071-2.016 1.429 0.544-0.723 0.996-1.629 1.324-2.662h1.686c-0.284 0.443-0.616 0.856-0.993 1.233z" fill="#000000"></path>
</svg>
