<svg xmlns="http://www.w3.org/2000/svg" width="18" height="18" viewBox="0 0 18 18"><path d="M8.438 1.125C3.778 1.125 0 4.903 0 9.563S3.778 18 8.438 18s8.438-3.777 8.438-8.437-3.778-8.438-8.438-8.438zm4.774 11.25c.15-.71.246-1.466.277-2.25h2.24c-.06.777-.24 1.53-.54 2.25h-1.978zM3.662 6.75c-.15.71-.245 1.466-.276 2.25h-2.24c.06-.777.24-1.53.54-2.25h1.977zm8.397 0c.168.72.27 1.474.303 2.25H9V6.75h3.06zM9 5.625V2.332c.256.075.51.2.76.376.467.33.914.837 1.293 1.468.262.436.488.92.677 1.45H9zm-3.178-1.45c.378-.63.825-1.138 1.293-1.468.25-.176.503-.3.76-.376v3.294h-2.73c.19-.53.416-1.014.678-1.45zM7.875 6.75V9H4.512c.033-.776.135-1.53.304-2.25h3.06zm-6.19 5.625c-.3-.72-.48-1.473-.538-2.25h2.24c.03.784.126 1.54.277 2.25H1.686zm2.827-2.25h3.363v2.25h-3.06c-.168-.72-.27-1.474-.303-2.25zM7.875 13.5v3.293c-.256-.075-.51-.2-.76-.376-.467-.33-.914-.837-1.293-1.468-.262-.437-.488-.922-.677-1.45h2.73zm3.178 1.45c-.378.63-.825 1.138-1.293 1.468-.25.176-.503.3-.76.376V13.5h2.73c-.19.53-.416 1.015-.678 1.45zM9 12.375v-2.25h3.363c-.033.776-.135 1.53-.304 2.25H9zM13.49 9c-.032-.784-.127-1.54-.278-2.25h1.978c.3.72.48 1.473.54 2.25h-2.24zm1.11-3.375h-1.685c-.328-1.033-.78-1.94-1.324-2.662.75.358 1.426.837 2.017 1.43.378.377.71.79.993 1.232zM3.268 4.392c.592-.592 1.27-1.07 2.016-1.43-.544.724-.996 1.63-1.324 2.663H2.272c.284-.443.616-.856.993-1.233zM2.274 13.5H3.96c.328 1.033.78 1.94 1.324 2.662-.748-.358-1.425-.837-2.016-1.43-.378-.377-.71-.79-.993-1.232zm11.334 1.233c-.592.592-1.27 1.07-2.016 1.43.544-.724.996-1.63 1.324-2.663h1.686c-.284.443-.616.856-.993 1.233z"/></svg>